<?xml version="1.0" encoding="utf-8"?>
<!-- Generator: Adobe Illustrator 22.1.0, SVG Export Plug-In . SVG Version: 6.00 Build 0)  -->
<svg version="1.1" xmlns="http://www.w3.org/2000/svg" xmlns:xlink="http://www.w3.org/1999/xlink" x="0px" y="0px"
	 viewBox="0 0 64 70.9" style="enable-background:new 0 0 64 70.9;" xml:space="preserve">
<style type="text/css">
	.st0{fill:#FBD0A9;}
	.st1{fill:#F7B476;}
	.st2{fill:#F5A45C;}
</style>
<g id="Layer_1">
	<g>
		<path class="st0" d="M0,41.5v-2h64v2H32H0"/>
		<path class="st1" d="M32,41.5h32v8H32V41.5"/>
		<path class="st2" d="M32,41.5v8H0v-8H32"/>
		<path class="st0" d="M37.9,28.3l-3.3-1.1L32,24.4l-2.6,2.8l-3.3,1.1L25,26.7l4.4-1.3l2.6-4l2.7,4l4.3,1.3L37.9,28.3"/>
		<path class="st1" d="M26.1,28.3l3.3-1.1l2.6-2.8l2.7,2.8l3.3,1.1l-1.7,2.4h-8.5L26.1,28.3"/>
		<path class="st2" d="M27.8,30.7h8.5l0.1,4.8l-4.3-2l-4.3,2h0L27.8,30.7"/>
	</g>
</g>
<g id="Layer_2">
	<g>
		<path class="st0" d="M0,41.5v-2h64v2H32H0"/>
		<path class="st1" d="M32,41.5h32v8H32V41.5"/>
		<path class="st2" d="M32,41.5v8H0v-8H32"/>
		<path class="st0" d="M29.9,28.3l-3.3-1.1L24,24.4l-2.6,2.8l-3.3,1.1L17,26.7l4.4-1.3l2.6-4l2.6,4l4.4,1.3L29.9,28.3"/>
		<path class="st1" d="M29.9,28.3l-1.7,2.4h-8.5l-1.7-2.4l3.3-1.1l2.6-2.8l2.6,2.8L29.9,28.3"/>
		<path class="st2" d="M19.8,30.7h8.5l0.1,4.8l-4.4-2l-4.3,2h-0.1L19.8,30.7"/>
		<path class="st0" d="M34.1,28.3L33,26.7l4.4-1.3l2.6-4l2.6,4l4.4,1.3l-1.1,1.6l-3.3-1.1L40,24.4l-2.6,2.8L34.1,28.3"/>
		<path class="st1" d="M34.1,28.3l3.3-1.1l2.6-2.8l2.6,2.8l3.3,1.1l-1.7,2.4h-8.5L34.1,28.3"/>
		<path class="st2" d="M44.2,30.7l0.1,4.8l-4.4-2l-4.3,2h-0.1l0.1-4.8H44.2"/>
	</g>
</g>
<g id="Layer_3">
	<g>
		<path class="st0" d="M0,41.5v-2h64v2H32H0"/>
		<path class="st1" d="M32,41.5h32v8H32V41.5"/>
		<path class="st2" d="M32,41.5v8H0v-8H32"/>
		<path class="st0" d="M37.9,28.3l-3.3-1.1L32,24.4l-2.6,2.8l-3.3,1.1L25,26.7l4.4-1.3l2.6-4l2.6,4l4.4,1.3L37.9,28.3"/>
		<path class="st1" d="M37.9,28.3l-1.7,2.4h-8.5l-1.7-2.4l3.3-1.1l2.6-2.8l2.6,2.8L37.9,28.3"/>
		<path class="st2" d="M27.8,30.7h8.5l0.1,4.8l-4.4-2l-4.3,2h-0.1L27.8,30.7"/>
		<path class="st0" d="M10.1,28.3L9,26.7l4.4-1.3l2.6-4l2.6,4l4.4,1.3l-1.1,1.6l-3.3-1.1L16,24.4l-2.6,2.8L10.1,28.3"/>
		<path class="st1" d="M10.1,28.3l3.3-1.1l2.6-2.8l2.6,2.8l3.3,1.1l-1.7,2.4h-8.5L10.1,28.3"/>
		<path class="st2" d="M20.2,30.7l0.1,4.8l-4.4-2l-4.3,2h-0.1l0.1-4.8H20.2"/>
		<path class="st0" d="M42.1,28.3L41,26.7l4.4-1.3l2.6-4l2.6,4l4.4,1.3l-1.1,1.6l-3.3-1.1L48,24.4l-2.6,2.8L42.1,28.3"/>
		<path class="st2" d="M52.2,30.7l0.1,4.8l-4.4-2l-4.3,2h-0.1l0.1-4.8H52.2"/>
		<path class="st1" d="M52.2,30.7h-8.5l-1.7-2.4l3.3-1.1l2.6-2.8l2.6,2.8l3.3,1.1L52.2,30.7"/>
	</g>
</g>
<g id="Layer_4">
	<g>
		<path class="st1" d="M32,35.5h32v8H32V35.5"/>
		<path class="st0" d="M32,35.5H0v-2h64v2H32"/>
		<path class="st2" d="M32,35.5v8H0v-8H32"/>
		<path class="st0" d="M26,22.3l-1-1.6l4.4-1.3l2.6-3.9l2.6,3.9l4.4,1.3l-1,1.6l-3.3-1.1L32,18.4l-2.6,2.8L26,22.3"/>
		<path class="st1" d="M26,22.3l3.4-1.1l2.6-2.8l2.6,2.8l3.3,1.1l-1.7,2.4h-8.5L26,22.3"/>
		<path class="st2" d="M36.2,24.7l0.1,4.8l-4.4-2l-4.3,2h-0.1l0.1-4.8H36.2"/>
		<path class="st0" d="M0,47.5v-2h64v2H32H0"/>
		<path class="st1" d="M32,47.5h32v8H32V47.5"/>
		<path class="st2" d="M32,47.5v8H0v-8H32"/>
	</g>
</g>
<g id="Layer_5">
	<g>
		<path class="st1" d="M32,35.5h32v8H32V35.5"/>
		<path class="st0" d="M32,35.5H0v-2h64v2H32"/>
		<path class="st2" d="M32,35.5v8H0v-8H32"/>
		<path class="st0" d="M18,22.3l-1-1.6l4.4-1.3l2.6-3.9l2.6,3.9l4.4,1.3l-1,1.6l-3.3-1.1L24,18.4l-2.6,2.8L18,22.3"/>
		<path class="st1" d="M18,22.3l3.4-1.1l2.6-2.8l2.6,2.8l3.3,1.1l-1.7,2.4h-8.5L18,22.3"/>
		<path class="st2" d="M28.2,24.7l0.1,4.8l-4.4-2l-4.3,2h-0.1l0.1-4.8H28.2"/>
		<path class="st0" d="M46,22.3l-3.3-1.1L40,18.4l-2.6,2.8L34,22.3l-1-1.6l4.4-1.3l2.6-3.9l2.6,3.9l4.4,1.3L46,22.3"/>
		<path class="st1" d="M46,22.3l-1.7,2.4h-8.5L34,22.3l3.4-1.1l2.6-2.8l2.6,2.8L46,22.3"/>
		<path class="st2" d="M35.8,24.7h8.5l0.1,4.8l-4.4-2l-4.3,2h-0.1L35.8,24.7"/>
		<path class="st0" d="M0,47.5v-2h64v2H32H0"/>
		<path class="st1" d="M32,47.5h32v8H32V47.5"/>
		<path class="st2" d="M32,47.5v8H0v-8H32"/>
	</g>
</g>
<g id="Layer_6">
	<g>
		<path class="st1" d="M32,35h32v8H32V35"/>
		<path class="st0" d="M32,35H0v-2h64v2H32"/>
		<path class="st2" d="M32,35v8H0v-8H32"/>
		<path class="st1" d="M38,21.8l-1.7,2.4h-8.5L26,21.8l3.4-1.1l2.6-2.8l2.6,2.8L38,21.8"/>
		<path class="st0" d="M38,21.8l-3.3-1.1L32,17.9l-2.6,2.8L26,21.8l-1-1.6l4.4-1.3L32,15l2.6,3.9l4.4,1.3L38,21.8"/>
		<path class="st2" d="M36.2,24.2l0.1,4.8L32,27l-4.3,2h-0.1l0.1-4.8H36.2"/>
		<path class="st0" d="M22,21.8l-3.3-1.1L16,17.9l-2.6,2.8L10,21.8l-1-1.6l4.4-1.3L16,15l2.6,3.9l4.4,1.3L22,21.8"/>
		<path class="st1" d="M10,21.8l3.4-1.1l2.6-2.8l2.6,2.8l3.3,1.1l-1.7,2.4h-8.5L10,21.8"/>
		<path class="st2" d="M11.8,24.2h8.5l0.1,4.8L16,27l-4.3,2h-0.1L11.8,24.2"/>
		<path class="st1" d="M54,21.8l-1.7,2.4h-8.5L42,21.8l3.4-1.1l2.6-2.8l2.6,2.8L54,21.8"/>
		<path class="st0" d="M54,21.8l-3.3-1.1L48,17.9l-2.6,2.8L42,21.8l-1-1.6l4.4-1.3L48,15l2.6,3.9l4.4,1.3L54,21.8"/>
		<path class="st2" d="M52.2,24.2l0.1,4.8L48,27l-4.3,2h-0.1l0.1-4.8H52.2"/>
		<path class="st0" d="M0,48v-2h64v2H32H0"/>
		<path class="st1" d="M32,48h32v8H32V48"/>
		<path class="st2" d="M0,48h32v8H0V48"/>
	</g>
</g>
<g id="Layer_7_1_">
	<g>
		<path class="st1" d="M32,28.5h32v8H32V28.5"/>
		<path class="st0" d="M32,28.5H0v-2h64v2H32"/>
		<path class="st2" d="M32,28.5v8H0v-8H32"/>
		<path class="st0" d="M26,15.3l-1-1.6l4.4-1.3L32,8.5l2.6,3.9l4.4,1.3l-1,1.6l-3.3-1.1L32,11.4l-2.6,2.8L26,15.3"/>
		<path class="st1" d="M26,15.3l3.4-1.1l2.6-2.8l2.6,2.8l3.3,1.1l-1.7,2.4h-8.5L26,15.3"/>
		<path class="st2" d="M36.2,17.7l0.1,4.8l-4.4-2l-4.3,2h-0.1l0.1-4.8H36.2"/>
		<path class="st0" d="M0,41.5v-2h64v2H32H0"/>
		<path class="st1" d="M32,41.5h32v8H32V41.5"/>
		<path class="st2" d="M32,41.5v8H0v-8H32"/>
		<path class="st0" d="M0,54.5v-2h64v2H32H0"/>
		<path class="st1" d="M32,54.5h32v8H32V54.5"/>
		<path class="st2" d="M32,54.5v8H0v-8H32"/>
	</g>
</g>
<g id="Layer_8_1_">
	<g>
		<path class="st1" d="M32,28.5h32v8H32V28.5"/>
		<path class="st0" d="M32,28.5H0v-2h64v2H32"/>
		<path class="st2" d="M32,28.5v8H0v-8H32"/>
		<path class="st0" d="M18,15.3l-1-1.6l4.4-1.3L24,8.5l2.6,3.9l4.4,1.3l-1,1.6l-3.3-1.1L24,11.4l-2.6,2.8L18,15.3"/>
		<path class="st1" d="M18,15.3l3.4-1.1l2.6-2.8l2.6,2.8l3.3,1.1l-1.7,2.4h-8.5L18,15.3"/>
		<path class="st2" d="M28.2,17.7l0.1,4.8l-4.4-2l-4.3,2h-0.1l0.1-4.8H28.2"/>
		<path class="st0" d="M46,15.3l-3.3-1.1L40,11.4l-2.6,2.8L34,15.3l-1-1.6l4.4-1.3L40,8.5l2.6,3.9l4.4,1.3L46,15.3"/>
		<path class="st1" d="M46,15.3l-1.7,2.4h-8.5L34,15.3l3.4-1.1l2.6-2.8l2.6,2.8L46,15.3"/>
		<path class="st2" d="M35.8,17.7h8.5l0.1,4.8l-4.4-2l-4.3,2h-0.1L35.8,17.7"/>
		<path class="st0" d="M0,41.5v-2h64v2H32H0"/>
		<path class="st1" d="M32,41.5h32v8H32V41.5"/>
		<path class="st2" d="M32,41.5v8H0v-8H32"/>
		<path class="st0" d="M0,54.5v-2h64v2H32H0"/>
		<path class="st1" d="M32,54.5h32v8H32V54.5"/>
		<path class="st2" d="M32,54.5v8H0v-8H32"/>
	</g>
</g>
<g id="Layer_9_1_">
	<g>
		<path class="st1" d="M32,28.5h32v8H32V28.5"/>
		<path class="st0" d="M32,28.5H0v-2h64v2H32"/>
		<path class="st2" d="M32,28.5v8H0v-8H32"/>
		<path class="st1" d="M38,15.3l-1.7,2.4h-8.5L26,15.3l3.4-1.1l2.6-2.8l2.6,2.8L38,15.3"/>
		<path class="st0" d="M38,15.3l-3.3-1.1L32,11.4l-2.6,2.8L26,15.3l-1-1.6l4.4-1.3L32,8.5l2.6,3.9l4.4,1.3L38,15.3"/>
		<path class="st2" d="M36.2,17.7l0.1,4.8l-4.4-2l-4.3,2h-0.1l0.1-4.8H36.2"/>
		<path class="st0" d="M22,15.3l-3.3-1.1L16,11.4l-2.6,2.8L10,15.3l-1-1.6l4.4-1.3L16,8.5l2.6,3.9l4.4,1.3L22,15.3"/>
		<path class="st1" d="M10,15.3l3.4-1.1l2.6-2.8l2.6,2.8l3.3,1.1l-1.7,2.4h-8.5L10,15.3"/>
		<path class="st2" d="M11.8,17.7h8.5l0.1,4.8l-4.4-2l-4.3,2h-0.1L11.8,17.7"/>
		<path class="st1" d="M54,15.3l-1.7,2.4h-8.5L42,15.3l3.4-1.1l2.6-2.8l2.6,2.8L54,15.3"/>
		<path class="st0" d="M54,15.3l-3.3-1.1L48,11.4l-2.6,2.8L42,15.3l-1-1.6l4.4-1.3L48,8.5l2.6,3.9l4.4,1.3L54,15.3"/>
		<path class="st2" d="M52.2,17.7l0.1,4.8l-4.4-2l-4.3,2h-0.1l0.1-4.8H52.2"/>
		<path class="st0" d="M0,41.5v-2h64v2H32H0"/>
		<path class="st1" d="M32,41.5h32v8H32V41.5"/>
		<path class="st2" d="M0,41.5h32v8H0V41.5"/>
		<path class="st0" d="M0,54.5v-2h64v2H32H0"/>
		<path class="st1" d="M32,54.5h32v8H32V54.5"/>
		<path class="st2" d="M32,54.5v8H0v-8H32"/>
	</g>
</g>
<g id="Layer_10">
	<g>
		<path class="st0" d="M0,19.5v-2h64v2H32H0"/>
		<path class="st1" d="M32,19.5h32v8H32V19.5"/>
		<path class="st2" d="M32,19.5v8H0v-8H32"/>
		<path class="st1" d="M32,53.5v-8l32-8v8L32,53.5"/>
		<path class="st2" d="M32,53.5l-32-8v-8l32,8V53.5"/>
		<path class="st0" d="M64,37.5l-32,8l-32-8v-2l32,8l32-8V37.5"/>
		<path class="st2" d="M32,40.5l-24-8h24V40.5"/>
		<path class="st1" d="M32,40.5v-8h24L32,40.5"/>
		<path class="st0" d="M8,32.5v-2h48v2H32H8"/>
	</g>
</g>
<g id="Layer_11">
	<g>
		<path class="st0" d="M0,13v-2h64v2H32H0"/>
		<path class="st1" d="M32,13h32v8H32V13"/>
		<path class="st2" d="M32,13v8H0v-8H32"/>
		<path class="st1" d="M32,47v-8l32-8v8L32,47"/>
		<path class="st2" d="M32,47L0,39v-8l32,8V47"/>
		<path class="st0" d="M64,31l-32,8L0,31v-2l32,8l32-8V31"/>
		<path class="st2" d="M32,34L8,26h24V34"/>
		<path class="st1" d="M32,34v-8h24L32,34"/>
		<path class="st0" d="M8,26v-2h48v2H32H8"/>
		<path class="st1" d="M32,60v-8l32-8v8L32,60"/>
		<path class="st2" d="M32,60L0,52v-8l32,8V60"/>
		<path class="st0" d="M64,44l-32,8L0,44v-2l32,8l32-8V44"/>
	</g>
</g>
<g id="Layer_12">
	<g>
		<path class="st0" d="M0,6.5v-2h64v2H32H0"/>
		<path class="st1" d="M32,6.5h32v8H32V6.5"/>
		<path class="st2" d="M32,6.5v8H0v-8H32"/>
		<path class="st1" d="M32,40.5v-8l32-8v8L32,40.5"/>
		<path class="st2" d="M32,40.5l-32-8v-8l32,8V40.5"/>
		<path class="st0" d="M64,24.5l-32,8l-32-8v-2l32,8l32-8V24.5"/>
		<path class="st2" d="M32,27.5l-24-8h24V27.5"/>
		<path class="st1" d="M32,27.5v-8h24L32,27.5"/>
		<path class="st0" d="M8,19.5v-2h48v2H32H8"/>
		<path class="st1" d="M32,53.5v-8l32-8v8L32,53.5"/>
		<path class="st2" d="M32,53.5l-32-8v-8l32,8V53.5"/>
		<path class="st0" d="M64,37.5l-32,8l-32-8v-2l32,8l32-8V37.5"/>
		<path class="st1" d="M32,66.5v-8l32-8v8L32,66.5"/>
		<path class="st2" d="M32,66.5l-32-8v-8l32,8V66.5"/>
		<path class="st0" d="M64,50.5l-32,8l-32-8v-2l32,8l32-8V50.5"/>
	</g>
</g>
<g id="Layer_13">
	<g>
		<path class="st0" d="M16,36v-2l16-16l16,16v2L32,20L16,36"/>
		<path class="st1" d="M32,20l16,16L32,52V20"/>
		<path class="st2" d="M32,20v32L16,36L32,20"/>
		<path class="st0" d="M64,50l-32,8L0,50v-2l32,8l32-8V50"/>
		<path class="st1" d="M64,50v8l-32,8v-8L64,50"/>
		<path class="st2" d="M32,58v8L0,58v-8L32,58"/>
		<path class="st0" d="M32,7L0,15v-2l32-8l32,8v2L32,7"/>
		<path class="st2" d="M32,7v8L0,23v-8L32,7"/>
		<path class="st1" d="M32,7l32,8v8l-32-8V7"/>
	</g>
</g>
<g id="Layer_14">
	<g>
		<path class="st0" d="M16,36v-2l16-16l16,16v2L32,20L16,36"/>
		<path class="st1" d="M32,20l16,16L32,52V20"/>
		<path class="st2" d="M32,20v32L16,36L32,20"/>
		<path class="st0" d="M64,50l-32,8L0,50v-2l32,8l32-8V50"/>
		<path class="st1" d="M64,50v8l-32,8v-8L64,50"/>
		<path class="st2" d="M32,58v8L0,58v-8L32,58"/>
		<path class="st0" d="M32,7L0,15v-2l32-8l32,8v2L32,7"/>
		<path class="st2" d="M32,7v8L0,23v-8L32,7"/>
		<path class="st1" d="M32,7l32,8v8l-32-8V7"/>
		<path class="st0" d="M62.9,35.8l-3.3-1.1L57,31.9l-2.6,2.8l-3.3,1.1L50,34.2l4.4-1.3l2.6-4l2.7,4l4.3,1.3L62.9,35.8"/>
		<path class="st1" d="M51.1,35.8l3.3-1.1l2.6-2.8l2.7,2.8l3.3,1.1l-1.7,2.4h-8.5L51.1,35.8"/>
		<path class="st2" d="M52.8,38.2h8.5l0.1,4.8L57,41l-4.3,2h0L52.8,38.2"/>
		<path class="st0" d="M12.9,35.8l-3.3-1.1L7,31.9l-2.6,2.8l-3.3,1.1L0,34.2l4.4-1.3L7,29l2.7,4l4.3,1.3L12.9,35.8"/>
		<path class="st1" d="M1.1,35.8l3.3-1.1L7,31.9l2.7,2.8l3.3,1.1l-1.7,2.4H2.8L1.1,35.8"/>
		<path class="st2" d="M2.8,38.2h8.5l0.1,4.8L7,41l-4.3,2h0L2.8,38.2"/>
	</g>
</g>
<g id="Layer_15">
	<g>
		<path class="st0" d="M0,28.5v-2h24l8-8l8,8h24v2H40l-8-8l-8,8H0"/>
		<path class="st1" d="M64,28.5l-24,8l-8,16v-32l8,8H64"/>
		<path class="st2" d="M32,52.5l-8-16l-24-8h24l8-8V52.5"/>
	</g>
</g>
<g id="Layer_16">
	<g>
		<path class="st0" d="M32,51L0,43v-2l32,8l32-8v2L32,51"/>
		<path class="st2" d="M32,51v8L0,51v-8L32,51"/>
		<path class="st1" d="M32,59v-8l32-8v8L32,59"/>
		<path class="st0" d="M0,22v-2h24l8-8l8,8h24v2H40l-8-8l-8,8H0"/>
		<path class="st1" d="M64,22l-24,8l-8,16V14l8,8H64"/>
		<path class="st2" d="M32,46l-8-16L0,22h24l8-8V46"/>
	</g>
</g>
<g id="Layer_17">
	<g>
		<path class="st0" d="M32,51L0,43v-2l32,8l32-8v2L32,51"/>
		<path class="st2" d="M32,51v8L0,51v-8L32,51"/>
		<path class="st1" d="M32,59v-8l32-8v8L32,59"/>
		<path class="st0" d="M0,22v-2h24l8-8l8,8h24v2H40l-8-8l-8,8H0"/>
		<path class="st1" d="M64,22l-24,8l-8,16V14l8,8H64"/>
		<path class="st2" d="M32,46l-8-16L0,22h24l8-8V46"/>
		<path class="st0" d="M54.9,34.8l-3.3-1.1L49,30.9l-2.6,2.8l-3.3,1.1L42,33.2l4.4-1.3l2.6-4l2.7,4l4.3,1.3L54.9,34.8"/>
		<path class="st1" d="M43.1,34.8l3.3-1.1l2.6-2.8l2.7,2.8l3.3,1.1l-1.7,2.4h-8.5L43.1,34.8"/>
		<path class="st2" d="M44.8,37.2h8.5l0.1,4.8L49,40l-4.3,2h0L44.8,37.2"/>
		<path class="st0" d="M20.9,34.8l-3.3-1.1L15,30.9l-2.6,2.8l-3.3,1.1L8,33.2l4.4-1.3l2.6-4l2.7,4l4.3,1.3L20.9,34.8"/>
		<path class="st1" d="M9.1,34.8l3.3-1.1l2.6-2.8l2.7,2.8l3.3,1.1l-1.7,2.4h-8.5L9.1,34.8"/>
		<path class="st2" d="M10.8,37.2h8.5l0.1,4.8L15,40l-4.3,2h0L10.8,37.2"/>
	</g>
</g>
<g id="Layer_18_1_">
	<g>
		<path class="st0" d="M32,45L0,37v-2l32,8l32-8v2L32,45"/>
		<path class="st2" d="M32,45v8L0,45v-8L32,45"/>
		<path class="st1" d="M32,53v-8l32-8v8L32,53"/>
		<path class="st0" d="M0,16v-2h24l8-8l8,8h24v2H40l-8-8l-8,8H0"/>
		<path class="st1" d="M64,16l-24,8l-8,16V8l8,8H64"/>
		<path class="st2" d="M32,40l-8-16L0,16h24l8-8V40"/>
		<path class="st0" d="M32,56.9l-32-8v-2l32,8l32-8v2L32,56.9"/>
		<path class="st2" d="M32,56.9v8l-32-8v-8L32,56.9"/>
		<path class="st1" d="M32,64.9v-8l32-8v8L32,64.9"/>
	</g>
</g>
<g id="Layer_19_1_">
	<g>
		<path class="st0" d="M32,45L0,37v-2l32,8l32-8v2L32,45"/>
		<path class="st2" d="M32,45v8L0,45v-8L32,45"/>
		<path class="st1" d="M32,53v-8l32-8v8L32,53"/>
		<path class="st0" d="M0,16v-2h24l8-8l8,8h24v2H40l-8-8l-8,8H0"/>
		<path class="st1" d="M64,16l-24,8l-8,16V8l8,8H64"/>
		<path class="st2" d="M32,40l-8-16L0,16h24l8-8V40"/>
		<path class="st0" d="M32,56.9l-32-8v-2l32,8l32-8v2L32,56.9"/>
		<path class="st2" d="M32,56.9v8l-32-8v-8L32,56.9"/>
		<path class="st1" d="M32,64.9v-8l32-8v8L32,64.9"/>
		<path class="st0" d="M19.9,28.8l-3.3-1.1L14,25l-2.6,2.8l-3.3,1.1L7,27.2l4.4-1.3l2.6-4l2.7,4l4.3,1.3L19.9,28.8"/>
		<path class="st1" d="M8.1,28.8l3.3-1.1L14,25l2.7,2.8l3.3,1.1l-1.7,2.4H9.8L8.1,28.8"/>
		<path class="st2" d="M9.8,31.2h8.5l0.1,4.8L14,34l-4.3,2h0L9.8,31.2"/>
		<path class="st0" d="M54.9,28.8l-3.3-1.1L49,25l-2.6,2.8l-3.3,1.1L42,27.2l4.4-1.3l2.6-4l2.7,4l4.3,1.3L54.9,28.8"/>
		<path class="st1" d="M43.1,28.8l3.3-1.1L49,25l2.7,2.8l3.3,1.1l-1.7,2.4h-8.5L43.1,28.8"/>
		<path class="st2" d="M44.8,31.2h8.5l0.1,4.8L49,34l-4.3,2h0L44.8,31.2"/>
	</g>
</g>
<g id="Layer_20_1_">
	<g>
		<path class="st0" d="M32,39L0,31v-2l32,8l32-8v2L32,39"/>
		<path class="st2" d="M32,39v8L0,39v-8L32,39"/>
		<path class="st1" d="M32,47v-8l32-8v8L32,47"/>
		<path class="st0" d="M0,10V8h24l8-8l8,8h24v2H40l-8-8l-8,8H0"/>
		<path class="st1" d="M64,10l-24,8l-8,16V2l8,8H64"/>
		<path class="st2" d="M32,34l-8-16L0,10h24l8-8V34"/>
		<path class="st0" d="M32,50.9l-32-8v-2l32,8l32-8v2L32,50.9"/>
		<path class="st2" d="M32,50.9v8l-32-8v-8L32,50.9"/>
		<path class="st1" d="M32,58.9v-8l32-8v8L32,58.9"/>
		<path class="st0" d="M32,62.9l-32-8v-2l32,8l32-8v2L32,62.9"/>
		<path class="st2" d="M32,62.9v8l-32-8v-8L32,62.9"/>
		<path class="st1" d="M32,70.9v-8l32-8v8L32,70.9"/>
	</g>
</g>
<g id="Layer_21">
	<g>
		<path class="st0" d="M32,39L0,31v-2l32,8l32-8v2L32,39"/>
		<path class="st2" d="M32,39v8L0,39v-8L32,39"/>
		<path class="st1" d="M32,47v-8l32-8v8L32,47"/>
		<path class="st0" d="M0,10V8h24l8-8l8,8h24v2H40l-8-8l-8,8H0"/>
		<path class="st1" d="M64,10l-24,8l-8,16V2l8,8H64"/>
		<path class="st2" d="M32,34l-8-16L0,10h24l8-8V34"/>
		<path class="st0" d="M32,50.9l-32-8v-2l32,8l32-8v2L32,50.9"/>
		<path class="st2" d="M32,50.9v8l-32-8v-8L32,50.9"/>
		<path class="st1" d="M32,58.9v-8l32-8v8L32,58.9"/>
		<path class="st0" d="M19.9,22.8l-3.3-1.1L14,19l-2.6,2.8l-3.3,1.1L7,21.2l4.4-1.3l2.6-4l2.7,4l4.3,1.3L19.9,22.8"/>
		<path class="st1" d="M8.1,22.8l3.3-1.1L14,19l2.7,2.8l3.3,1.1l-1.7,2.4H9.8L8.1,22.8"/>
		<path class="st2" d="M9.8,25.2h8.5l0.1,4.8L14,28l-4.3,2h0L9.8,25.2"/>
		<path class="st0" d="M54.9,22.8l-3.3-1.1L49,19l-2.6,2.8l-3.3,1.1L42,21.2l4.4-1.3l2.6-4l2.7,4l4.3,1.3L54.9,22.8"/>
		<path class="st1" d="M43.1,22.8l3.3-1.1L49,19l2.7,2.8l3.3,1.1l-1.7,2.4h-8.5L43.1,22.8"/>
		<path class="st2" d="M44.8,25.2h8.5l0.1,4.8L49,28l-4.3,2h0L44.8,25.2"/>
		<path class="st0" d="M32,62.9l-32-8v-2l32,8l32-8v2L32,62.9"/>
		<path class="st2" d="M32,62.9v8l-32-8v-8L32,62.9"/>
		<path class="st1" d="M32,70.9v-8l32-8v8L32,70.9"/>
	</g>
</g>
</svg>
